<?xml version="1.0" standalone="no"?>
<!DOCTYPE svg PUBLIC "-//W3C//DTD SVG 20010904//EN"
 "http://www.w3.org/TR/2001/REC-SVG-20010904/DTD/svg10.dtd">
<svg version="1.0" xmlns="http://www.w3.org/2000/svg"
 width="1420.000000pt" height="800.000000pt" viewBox="0 0 1420.000000 800.000000"
 preserveAspectRatio="xMidYMid meet">

<g transform="translate(0.000000,800.000000) scale(0.100000,-0.100000)"
fill="#000000" stroke="none">
<path d="M2995 6368 c-113 -12 -356 -62 -456 -94 -155 -48 -292 -110 -516
-234 -82 -45 -42 -40 50 6 505 254 1140 293 1708 103 52 -17 99 -35 104 -39 6
-4 21 -11 35 -15 31 -9 199 -92 266 -131 326 -190 621 -494 795 -819 174 -326
251 -629 251 -997 0 -137 -5 -204 -22 -295 -27 -151 -48 -240 -65 -278 -8 -16
-19 -49 -25 -72 -6 -24 -15 -43 -19 -43 -5 0 -12 62 -16 138 -25 484 -237 931
-596 1255 -245 222 -522 362 -857 433 -146 31 -418 43 -569 25 -142 -18 -318
-64 -434 -116 -106 -46 -217 -108 -258 -144 -13 -12 -27 -21 -31 -21 -11 0
-214 -201 -252 -250 -259 -331 -351 -672 -282 -1040 72 -385 324 -714 679
-887 128 -62 259 -98 418 -115 279 -30 604 63 828 237 77 60 150 127 145 133
-3 3 -23 -11 -44 -30 -44 -39 -155 -114 -217 -145 -62 -32 -212 -79 -295 -94
-91 -15 -331 -15 -420 0 -80 15 -246 65 -320 99 -145 65 -328 210 -419 332
-14 19 -34 44 -44 54 -28 32 -114 206 -140 286 -52 155 -67 323 -47 500 27
234 128 439 305 615 197 197 453 316 754 350 241 28 542 -11 736 -94 22 -10
60 -26 85 -36 25 -11 61 -28 80 -40 19 -11 52 -29 73 -40 125 -65 353 -279
456 -428 61 -89 151 -259 151 -285 0 -10 4 -22 9 -28 32 -34 88 -293 97 -444
10 -167 -33 -454 -85 -564 -10 -23 -22 -52 -26 -66 -10 -37 -99 -201 -141
-262 -89 -127 -189 -234 -309 -329 -78 -61 -166 -119 -183 -119 -5 0 -12 -4
-14 -9 -10 -26 -248 -123 -396 -161 -76 -20 -283 -40 -408 -40 -141 0 -400 23
-505 45 -162 34 -469 136 -469 156 0 5 -7 9 -15 9 -42 0 -263 128 -403 232
-132 99 -323 291 -416 417 -73 100 -173 265 -196 326 -6 15 -13 25 -16 22 -7
-7 62 -170 93 -219 13 -21 23 -41 23 -46 0 -18 100 -176 178 -282 112 -151
311 -351 467 -468 171 -130 426 -262 650 -337 134 -45 372 -95 451 -95 24 0
44 -4 44 -10 0 -6 70 -10 190 -10 106 0 190 4 190 9 0 5 33 12 73 16 143 14
396 79 547 141 120 50 297 145 410 222 69 46 127 87 130 91 3 3 30 26 60 51
242 196 458 478 600 785 28 61 55 119 61 130 14 31 68 202 89 285 10 41 28
141 40 221 19 126 21 177 17 355 -3 115 -8 227 -12 249 -51 292 -103 468 -203
680 -37 77 -69 142 -72 145 -3 3 -23 34 -45 70 -47 79 -123 186 -184 260 -68
82 -321 330 -338 330 -2 0 -69 48 -108 78 -113 87 -374 216 -555 276 -299 98
-620 135 -895 104z"/>
<path d="M2850 6045 c-197 -29 -364 -82 -545 -170 -369 -181 -658 -465 -821
-809 -24 -51 -44 -97 -44 -101 0 -5 28 36 62 91 34 54 64 101 68 104 3 3 16
19 28 35 198 260 476 478 747 585 33 13 65 26 70 30 6 4 44 17 85 29 41 12 86
26 100 31 32 11 100 25 225 47 125 22 450 25 570 5 159 -27 359 -79 430 -112
11 -5 56 -25 100 -45 125 -57 331 -178 365 -215 3 -3 23 -18 45 -35 77 -56
242 -220 304 -300 17 -22 38 -49 47 -60 8 -11 27 -39 42 -62 15 -23 30 -42 34
-43 18 0 -155 268 -221 343 -94 109 -282 274 -401 352 -237 156 -549 271 -820
305 -112 13 -364 11 -470 -5z"/>
<path d="M1919 5970 l-24 -20 28 11 c15 7 27 16 27 21 0 12 -5 10 -31 -12z"/>
<path d="M8535 5814 c-282 -70 -466 -237 -551 -499 -22 -67 -26 -99 -27 -195
0 -122 8 -166 50 -270 82 -202 239 -343 463 -417 42 -14 87 -18 190 -18 123 0
142 2 214 29 188 68 318 180 407 352 115 221 104 469 -32 704 -35 60 -145 166
-226 217 -112 69 -203 95 -348 99 -66 1 -129 1 -140 -2z m307 -178 c135 -51
233 -135 295 -252 55 -103 66 -149 66 -264 0 -124 -19 -194 -83 -300 -141
-234 -449 -325 -697 -206 -118 57 -238 186 -279 299 -60 165 -41 360 49 499
64 99 135 160 240 208 87 39 145 50 252 45 65 -2 109 -11 157 -29z"/>
<path d="M5970 5777 c0 -7 19 -58 41 -112 23 -55 56 -136 74 -180 55 -136 204
-496 237 -575 18 -41 36 -79 40 -85 4 -5 8 -15 8 -22 0 -7 11 -36 23 -65 13
-29 30 -69 37 -88 7 -19 21 -53 31 -75 10 -22 29 -66 43 -97 25 -58 25 -58 69
-58 52 0 67 13 97 90 12 30 28 69 35 85 7 17 30 71 50 120 20 50 41 99 46 110
5 11 26 62 47 114 21 52 43 96 48 98 6 2 32 -49 58 -114 26 -65 52 -126 57
-136 5 -9 23 -52 39 -95 17 -42 37 -90 45 -107 7 -16 27 -61 44 -98 l30 -68
53 3 53 3 32 75 c17 41 38 91 46 110 8 19 30 73 50 120 93 227 130 318 142
345 8 17 34 80 59 140 24 61 86 208 135 329 50 120 91 224 91 232 0 11 -17 14
-70 14 -81 0 -75 6 -137 -153 -19 -51 -41 -105 -48 -122 -7 -16 -23 -55 -35
-85 -32 -81 -137 -338 -228 -560 -44 -107 -86 -195 -92 -195 -13 0 -240 545
-240 576 0 10 4 20 9 23 5 3 12 17 15 31 4 14 24 67 45 118 103 244 141 338
141 352 0 12 -15 15 -74 15 l-74 0 -21 -43 c-12 -24 -21 -46 -21 -50 0 -6
-176 -455 -205 -522 -7 -16 -20 -50 -30 -75 -9 -25 -23 -58 -30 -75 -7 -16
-42 -102 -77 -189 -35 -88 -68 -161 -74 -163 -7 -2 -37 59 -73 149 -33 84 -99
248 -146 363 -47 116 -93 228 -101 250 -9 22 -20 49 -25 60 -31 73 -79 196
-79 205 0 6 -11 28 -25 50 l-25 40 -70 0 c-51 0 -70 -4 -70 -13z"/>
<path d="M9645 5778 c-3 -7 -4 -314 -3 -683 l3 -670 40 -3 c21 -2 54 -1 72 3
l33 6 0 250 0 249 223 -2 222 -3 27 -55 c15 -30 62 -129 104 -220 42 -91 88
-180 101 -198 24 -32 26 -33 91 -30 64 3 67 4 65 28 0 14 -53 132 -117 263
-64 131 -116 241 -116 246 0 4 17 17 38 29 39 22 115 97 150 147 11 17 30 59
41 93 75 221 -59 478 -285 547 -66 20 -682 22 -689 3z m690 -165 c54 -29 96
-72 125 -129 20 -37 24 -62 24 -123 0 -116 -49 -200 -149 -254 -37 -20 -58
-22 -293 -27 l-252 -5 0 276 c0 152 3 279 7 283 4 4 118 6 253 4 229 -3 248
-4 285 -25z"/>
<path d="M11033 5783 c-10 -4 -13 -149 -13 -678 0 -604 2 -673 16 -679 9 -3
197 -6 419 -6 389 0 405 1 415 19 14 27 13 104 -2 119 -9 9 -102 12 -355 12
l-343 0 0 594 c0 327 -3 601 -6 610 -5 12 -20 16 -63 15 -31 0 -62 -3 -68 -6z"/>
<path d="M12136 5775 c-8 -21 -8 -1318 0 -1339 5 -14 39 -16 273 -16 271 1
313 5 421 44 200 74 359 246 421 459 7 26 17 47 21 47 4 0 8 63 8 140 0 77 -4
140 -8 140 -4 0 -14 21 -21 48 -52 181 -190 345 -356 426 -122 59 -128 60
-451 64 -273 3 -302 2 -308 -13z m629 -155 c76 -23 155 -73 226 -140 22 -21
72 -98 91 -140 41 -90 54 -214 34 -327 -37 -212 -210 -394 -411 -433 -36 -6
-133 -10 -240 -8 l-180 3 -3 532 c-2 486 -1 532 14 535 39 7 432 -11 469 -22z"/>
<path d="M3060 5723 c-184 -17 -420 -77 -565 -143 -176 -80 -251 -125 -386
-232 -255 -201 -445 -488 -543 -818 -90 -306 -44 -736 110 -1032 10 -20 27
-52 38 -72 31 -61 30 -33 -2 41 -35 80 -66 177 -90 283 -13 57 -17 125 -17
285 0 225 11 295 71 470 55 156 176 370 272 479 83 93 167 176 179 176 7 0 13
4 13 10 0 12 136 114 230 173 179 110 408 193 660 238 174 32 460 32 635 1
303 -54 548 -156 768 -318 80 -59 263 -233 293 -280 9 -13 21 -24 27 -24 5 0
3 8 -6 18 -10 10 -17 22 -17 26 0 17 -172 216 -250 289 -193 182 -513 332
-853 401 -139 29 -422 43 -567 29z"/>
<path d="M6478 4090 c-58 -7 -214 -57 -235 -75 -7 -5 -34 -25 -60 -44 -99 -69
-162 -195 -163 -322 0 -177 102 -308 318 -406 114 -51 143 -61 277 -98 160
-44 245 -115 245 -204 0 -81 -47 -145 -135 -187 -40 -19 -66 -24 -136 -24 -47
0 -108 7 -135 15 -49 14 -133 64 -183 107 -96 84 -103 88 -117 80 -21 -12
-184 -174 -184 -183 0 -19 107 -121 173 -166 151 -101 279 -143 447 -143 119
0 204 18 301 63 213 100 324 291 289 500 -20 124 -104 240 -225 309 -67 38
-217 97 -314 123 -126 34 -222 76 -262 116 -36 36 -39 43 -39 97 0 110 66 162
216 170 121 6 183 -19 342 -139 55 -42 72 -36 152 55 76 88 78 110 14 163 -25
21 -58 48 -72 61 -48 40 -205 112 -277 127 -74 16 -144 17 -237 5z"/>
<path d="M7552 4046 c-19 -42 -17 -1559 2 -1575 9 -8 59 -11 152 -9 l139 3 5
237 5 236 93 101 c52 56 98 101 103 101 5 0 62 -71 127 -157 294 -393 375
-499 390 -510 20 -16 357 -18 367 -3 3 6 -4 25 -17 43 -26 37 -222 294 -241
318 -16 18 -96 123 -117 153 -20 28 -159 211 -238 314 -38 50 -60 87 -56 95 7
11 131 155 145 167 3 3 36 41 75 85 38 45 129 149 202 233 72 84 132 159 132
167 0 23 -39 28 -191 23 l-140 -3 -42 -45 c-23 -25 -55 -61 -71 -80 -16 -19
-61 -71 -101 -115 -40 -44 -87 -98 -106 -120 -19 -22 -52 -60 -74 -84 -22 -24
-45 -49 -50 -55 -6 -6 -46 -53 -89 -103 -43 -51 -85 -93 -92 -93 -12 0 -14 57
-14 333 0 182 -4 338 -9 346 -7 11 -41 16 -143 19 l-134 4 -12 -26z"/>
<path d="M9788 4042 c-13 -16 -32 -51 -42 -78 -10 -27 -22 -58 -27 -69 -5 -11
-108 -270 -229 -575 -121 -305 -229 -575 -240 -600 -48 -112 -90 -226 -90
-242 0 -16 12 -18 145 -18 170 0 151 -15 216 160 23 63 47 121 52 128 8 9 84
12 345 10 l335 -3 10 -30 c5 -16 15 -43 22 -60 7 -16 28 -66 45 -110 17 -44
37 -83 43 -87 17 -11 285 -10 291 1 6 9 -12 68 -38 126 -7 17 -28 68 -46 115
-18 47 -38 99 -45 115 -8 17 -54 131 -103 255 -154 388 -292 732 -324 810 -16
41 -35 86 -40 100 -19 47 -25 55 -49 67 -14 7 -63 13 -116 13 -88 0 -92 -1
-115 -28z m179 -523 c24 -63 60 -159 79 -214 20 -55 46 -127 59 -160 13 -33
27 -72 30 -87 l7 -28 -231 0 c-161 0 -231 3 -231 11 0 6 6 25 14 42 8 18 58
150 111 295 54 144 103 261 108 259 6 -2 30 -55 54 -118z"/>
<path d="M10660 4063 c-8 -3 -18 -11 -22 -17 -13 -19 -9 -241 4 -254 9 -9 73
-12 225 -12 l213 0 2 -657 3 -658 139 -3 c93 -2 143 1 152 9 12 10 14 119 14
660 l0 649 208 0 c152 0 213 3 225 13 15 11 17 28 15 137 l-3 125 -40 7 c-47
8 -1113 9 -1135 1z"/>
<path d="M12190 4063 c-14 -2 -31 -12 -38 -21 -17 -22 -18 -1548 -1 -1569 9
-10 116 -13 554 -13 299 0 550 3 559 6 14 5 16 27 16 139 0 112 -2 134 -16
139 -9 3 -195 6 -415 6 l-399 0 0 200 c0 153 3 200 13 200 6 1 145 1 307 0
174 0 301 4 310 10 12 7 16 36 18 127 1 67 -2 125 -7 133 -9 13 -60 16 -323
20 l-313 5 0 165 0 165 413 3 412 2 0 139 c0 135 -1 139 -22 145 -26 6 -1029
6 -1068 -1z"/>
</g>
</svg>
