<svg id="Capa_1" enable-background="new 0 0 512 512" height="512" viewBox="0 0 512 512" width="512" xmlns="http://www.w3.org/2000/svg"><g><g><path d="m323.317 2.524-67.317 113.231-.078 30.735 29.01 17.932 20.046 10.839h12.925l20.046-10.838 93.114-156.624c2.046-3.441-.434-7.799-4.436-7.799h-98.873c-1.821 0-3.507.959-4.437 2.524z" fill="#c61926"/><g><path d="m284.932 164.421 11.047 18.581h30.924l11.047-18.581z" fill="#ad1729"/></g><path d="m284.932 175.26h-90.836l-20.046-10.838-93.113-156.623c-2.046-3.441.434-7.799 4.436-7.799h98.873c1.82 0 3.506.959 4.436 2.524l96.25 161.897z" fill="#ff4755"/><path d="m174.05 164.421 11.047 18.581h110.882l-11.047-18.581z" fill="#fc2b3a"/><path d="m311.528 215.936h-111.056c-15.612 0-28.268-12.656-28.268-28.268v-4.667h167.592v4.667c0 15.612-12.656 28.268-28.268 28.268z" fill="#ffe27a"/><path d="m311.528 206.356h-111.056c-13.935 0-25.507-10.086-27.834-23.354h-.435v13.667c0 15.612 12.656 28.268 28.268 28.268h111.056c15.612 0 28.268-12.656 28.268-28.268v-13.667h-.434c-2.327 13.268-13.898 23.354-27.833 23.354z" fill="#f9cf58"/><path d="m256 500.086c-143.236 0-143.432-137.837-143.236-140.909 4.788-74.94 67.087-134.241 143.236-134.241s138.448 59.3 143.236 134.241c.196 3.072 0 140.909-143.236 140.909z" fill="#ffcb5b"/><path d="m256 493.419c-76.148 0-138.435-59.302-143.224-134.242-.196 3.073-.307 6.168-.307 9.29-.001 79.272 64.261 143.533 143.531 143.533s143.532-64.261 143.532-143.532c0-3.122-.111-6.218-.307-9.29-4.79 74.939-67.077 134.241-143.225 134.241z" fill="#f7b737"/><path d="m256 463.177c-107.881 0-107.748-100.937-107.486-104 4.711-55.231 51.035-98.59 107.486-98.59 55.857 0 101.799 42.451 107.324 96.851.368 3.627-.74 105.739-107.324 105.739z" fill="#ff9838"/><path d="m256 457.769c-56.451 0-102.767-43.36-107.479-98.591-.261 3.063-.402 6.16-.402 9.29 0 59.581 48.3 107.881 107.881 107.881s107.881-48.3 107.881-107.881c0-3.13-.141-6.228-.402-9.29-4.712 55.231-51.028 98.591-107.479 98.591z" fill="#ff8709"/><path d="m266.203 307.771 10.395 21.062c1.657 3.358 4.861 5.686 8.567 6.224l23.244 3.377c9.333 1.356 13.059 12.825 6.306 19.408l-16.819 16.395c-2.682 2.614-3.905 6.38-3.272 10.071l3.97 23.15c.127.742.171 2.18.171 2.18h-16.681l-26.084-12.897-26.085 12.898h-16.681s.044-1.438.171-2.18l3.97-23.15c.633-3.691-.591-7.457-3.272-10.071l-16.819-16.395c-6.753-6.583-3.027-18.052 6.306-19.408l23.244-3.377c3.706-.539 6.91-2.866 8.567-6.225l10.395-21.062c4.174-8.456 16.234-8.456 20.407 0z" fill="#fff5f5"/><g><path d="m253.598 388.423-40.356 21.216c.128 8.173 8.993 13.853 16.673 9.815l20.79-10.93c3.315-1.743 7.275-1.743 10.59 0l20.79 10.93c7.68 4.038 16.546-1.642 16.673-9.815l-40.356-21.216c-1.504-.791-3.3-.791-4.804 0z" fill="#efe2dd"/></g></g><path d="m354.842 190.743h-197.684c-4.276 0-7.742-3.466-7.742-7.742s3.466-7.742 7.742-7.742h197.684c4.276 0 7.742 3.466 7.742 7.742s-3.467 7.742-7.742 7.742z" fill="#ff9838"/></g></svg>