<svg id="Capa_1" enable-background="new 0 0 512 512" height="512" viewBox="0 0 512 512" width="512" xmlns="http://www.w3.org/2000/svg"><g><g><path d="m418.002 511.163-159.989-67.878c-1.288-.547-2.743-.547-4.032 0l-159.982 67.878c-6.857 2.909-14.46-2.123-14.46-9.572v-443.031l9-9.581h334.922l9 9.581v443.03c0 7.449-7.602 12.482-14.459 9.573z" fill="#ffe27a"/><path d="m79.539 39.98v18.58h352.922v-18.58l-176.461-9z" fill="#f9cf58"/><path d="m383.351 454.745-126.387-53.622c-1.288-.547-2.743-.547-4.032 0l-126.343 53.605c-3.409 1.446-7.187-1.061-7.177-4.764l.983-391.404 9.047-9.581h253.116l8.953 9.581-.983 391.447c-.009 3.691-3.778 6.18-7.177 4.738z" fill="#ff4755"/><path d="m120.442 58.56h271.069l.047-18.58-136.096-9-135.02 9z" fill="#fc2b3a"/><path d="m267.169 167.368 11.379 23.056c1.814 3.676 5.321 6.224 9.378 6.813l25.444 3.697c10.216 1.484 14.295 14.039 6.903 21.245l-18.411 17.946c-2.936 2.862-4.275 6.984-3.582 11.025l4.346 25.341c.242 1.413.046 4.072.046 4.072h-18.118l-28.554-14.952-28.554 14.953h-18.118s-.197-2.659.046-4.072l4.346-25.341c.693-4.041-.647-8.163-3.582-11.025l-18.411-17.946c-7.393-7.206-3.313-19.76 6.903-21.245l25.444-3.697c4.057-.589 7.564-3.137 9.378-6.813l11.379-23.056c4.569-9.258 17.769-9.258 22.338-.001z" fill="#ffe27a"/><g><path d="m253.598 257.293-44.262 23.27c1.238 8.015 10.242 13.196 18.11 9.06l22.758-11.964c3.628-1.908 7.963-1.908 11.592 0l22.757 11.964c7.868 4.137 16.872-1.045 18.11-9.06l-44.262-23.27c-1.503-.791-3.299-.791-4.803 0z" fill="#f9cf58"/></g><path d="m449.798 30.98h-387.596c-11.04 0-19.163-17.508-17.702-20.285 3.346-6.359 10.017-10.695 17.702-10.695h387.597c7.684 0 14.356 4.336 17.702 10.694 1.46 2.777-6.663 20.286-17.703 20.286z" fill="#5a5a5a"/><path d="m449.798 21.399h-387.596c-7.684 0-14.346-4.341-17.692-10.699-1.461 2.777-2.298 5.934-2.298 9.29 0 11.04 8.95 19.99 19.99 19.99h387.597c11.04 0 19.99-8.95 19.99-19.99 0-3.356-.837-6.513-2.298-9.29-3.347 6.358-10.009 10.699-17.693 10.699z" fill="#4c4c4c"/></g></g></svg>