<svg id="Capa_1" enable-background="new 0 0 512 512" height="512" viewBox="0 0 512 512" width="512" xmlns="http://www.w3.org/2000/svg"><g><g><path d="m411.115 5.161v85.44l-13.058 20.908-82.669 63.75h-118.776l-84.144-64.888-11.583-19.771v-85.439c0-2.851 2.311-5.161 5.161-5.161h299.906c2.852 0 5.163 2.311 5.163 5.161z" fill="#c61926"/><path d="m196.612 164.421-95.727-73.82v16.043c0 1.6.742 3.11 2.009 4.087l54.79 42.252 19.464 7.279 19.464 22.74h118.776l19.817-23.013 19.11-7.006 54.79-42.251c1.267-.977 2.009-2.487 2.009-4.087v-16.044l-95.727 73.82z" fill="#ad1729"/><path d="m311.528 215.936h-111.056c-15.612 0-28.268-12.656-28.268-28.268v-4.667h167.592v4.667c0 15.612-12.656 28.268-28.268 28.268z" fill="#ffe27a"/><path d="m311.528 206.356h-111.056c-13.935 0-25.507-10.086-27.834-23.354h-.434v13.667c0 15.612 12.656 28.268 28.268 28.268h111.056c15.612 0 28.268-12.656 28.268-28.268v-13.667h-.434c-2.328 13.268-13.899 23.354-27.834 23.354z" fill="#f9cf58"/><path d="m399.532 368.468c0-16.398-10.867-30.253-25.79-34.77-2.469-8.372-5.799-16.375-9.901-23.898 7.359-13.747 5.247-31.229-6.349-42.824-11.596-11.596-29.077-13.708-42.824-6.349-7.523-4.102-15.526-7.432-23.898-9.901-4.517-14.923-18.372-25.79-34.77-25.79s-30.253 10.867-34.77 25.79c-8.372 2.468-16.374 5.799-23.898 9.901-13.747-7.359-31.229-5.247-42.824 6.349-11.596 11.596-13.708 29.078-6.349 42.824-4.102 7.523-7.432 15.526-9.901 23.898-14.923 4.517-25.79 18.372-25.79 34.77s10.867 30.253 25.79 34.77c2.468 8.372 5.799 16.375 9.901 23.898-1.339 2.5-3.075 7.813-3.075 7.813l3.65 22.548 48.599 9.812 58.659 36.901 58.677-36.901 48.919-9.812 3.329-22.548s-1.737-5.313-3.076-7.813c4.102-7.523 7.432-15.526 9.901-23.898 14.923-4.517 25.79-18.372 25.79-34.77z" fill="#ffcb5b"/><g><path d="m357.492 451.38c-10.982 10.982-27.243 13.458-40.611 7.438-1.452-.654-3.114-.592-4.528.141-6.079 3.146-12.455 5.795-19.074 7.902-1.531.487-2.747 1.639-3.318 3.141-5.206 13.689-18.445 23.418-33.961 23.418s-28.755-9.729-33.961-23.418c-.571-1.502-1.787-2.654-3.318-3.141-6.619-2.107-12.995-4.756-19.074-7.902-1.414-.732-3.076-.795-4.528-.141-13.368 6.02-29.629 3.543-40.611-7.438-4.716-4.716-7.836-10.411-9.415-16.428-3.202 12.098-.071 25.522 9.415 35.009 11.596 11.595 29.077 13.708 42.824 6.349 7.523 4.102 15.526 7.432 23.898 9.901 4.517 14.922 18.372 25.789 34.77 25.789s30.253-10.867 34.77-25.79c8.372-2.469 16.375-5.799 23.898-9.901 13.747 7.359 31.229 5.246 42.824-6.349 9.486-9.487 12.617-22.911 9.415-35.009-1.579 6.017-4.699 11.713-9.415 16.429z" fill="#f7b737"/></g><path d="m256 445.174c-88.572 0-88.874-82.816-88.57-85.809 4.559-44.894 42.473-79.927 88.57-79.927 46.032 0 83.905 34.935 88.551 79.739.316 3.054.002 85.997-88.551 85.997z" fill="#ff9838"/><path d="m256 438.917c-46.032 0-83.9-34.936-88.546-79.74-.317 3.054-.484 6.153-.484 9.29 0 49.17 39.86 89.03 89.03 89.03s89.03-39.86 89.03-89.03c0-3.138-.167-6.236-.484-9.29-4.646 44.804-42.514 79.74-88.546 79.74z" fill="#ff8709"/><path d="m348.059 150.077-26.052 20.09-6.619-5.746v-164.421h38.927v134.402z" fill="#ff4755"/><path d="m163.941 150.077 26.052 20.09 6.619-5.746v-164.421h-38.927v134.402z" fill="#ff4755"/><g fill="#fc2b3a"><path d="m315.388 164.421v18.581c18.395-14.186 20.858-16.084 38.927-30.019v-18.58z"/><path d="m157.685 152.983 38.927 30.019v-18.581l-38.927-30.019z"/></g></g><path d="m354.842 190.743h-197.684c-4.276 0-7.742-3.466-7.742-7.742s3.466-7.742 7.742-7.742h197.683c4.276 0 7.742 3.466 7.742 7.742.001 4.276-3.465 7.742-7.741 7.742z" fill="#ff9838"/></g></svg>