<svg id="Capa_1" enable-background="new 0 0 512 512" height="512" viewBox="0 0 512 512" width="512" xmlns="http://www.w3.org/2000/svg"><g><g><path d="m233.146 374.921-63.368-41.247-24.665-7.851-49.881 143.309c-1.255 3.605 1.666 7.29 5.462 6.893l55.213-5.781c1.542-.161 3.076.372 4.184 1.456l39.691 38.814c2.729 2.668 7.306 1.593 8.561-2.012l41.087-118.046z" fill="#0083fd"/><path d="m249.43 390.456 6.57-18.877-104.222-64.905-6.665 19.149c23.775 23.891 57.445 47.861 104.317 64.633z" fill="#0072fc"/><path d="m278.854 374.921 63.368-41.247 24.665-7.851 49.881 143.309c1.255 3.605-1.666 7.29-5.462 6.893l-55.213-5.781c-1.542-.161-3.076.372-4.184 1.456l-39.691 38.814c-2.729 2.668-7.306 1.593-8.561-2.012l-41.087-118.046z" fill="#0083fd"/><path d="m262.57 390.456-6.57-18.877 104.222-64.905 6.665 19.149c-23.775 23.891-57.445 47.861-104.317 64.633z" fill="#0072fc"/><path d="m256 358.76c55.132-18.443 90.722-47.921 112.949-74.818 22.606-27.356 34.746-62.095 34.746-84.331l-.022-16.405-.156-117.041c-.003-2.081-1.244-3.961-3.158-4.781l-142.308-60.963c-1.31-.561-2.792-.561-4.102 0l-142.309 60.964c-1.913.82-3.155 2.699-3.158 4.781l-.156 117.041-.022 16.405c0 18.739 12.14 56.975 34.746 84.331 22.228 26.896 57.818 56.374 112.95 74.817z" fill="#e0e0e0"/><path d="m368.948 278.009c-21.999 26.621-57.089 55.771-111.26 74.248-1.09.372-2.286.372-3.377 0-54.171-18.477-89.261-47.626-111.26-74.248-22.106-26.751-34.248-60.23-34.725-94.802l-.022 16.405c-.053 35.402 12.14 69.793 34.746 97.149 22.227 26.897 57.817 56.374 112.949 74.818 55.132-18.444 90.722-47.921 112.949-74.818 22.606-27.356 34.799-61.747 34.746-97.149l-.022-16.405c-.476 34.572-12.617 68.051-34.724 94.802z" fill="#cecece"/><path d="m256 319.34c42.644-14.266 70.172-37.067 87.364-57.871 17.486-21.159 26.876-51.734 26.876-63.639l-.022-17.635-.114-89.721c-.003-2.081-1.244-3.962-3.158-4.781l-108.895-46.65c-1.31-.561-2.792-.561-4.102 0l-108.895 46.65c-1.913.82-3.155 2.7-3.158 4.781l-.114 89.72-.023 17.635c0 10.223 9.39 42.48 26.876 63.639 17.193 20.805 44.721 43.606 87.365 57.872z" fill="#9e9e9e"/><path d="m343.364 254.221c-16.963 20.526-43.987 42.997-85.664 57.295-1.096.376-2.304.376-3.401 0-41.676-14.298-68.701-36.768-85.664-57.295-17.247-20.871-26.64-47.039-26.853-74.028l-.023 17.635c-.041 27.383 9.39 53.984 26.876 75.144 17.192 20.804 44.721 43.605 87.364 57.871 42.644-14.266 70.172-37.067 87.364-57.871 17.486-21.159 26.917-47.76 26.876-75.144l-.022-17.635c-.213 26.99-9.605 53.157-26.853 74.028z" fill="#898989"/><path d="m267.276 125.358 11.488 23.278c1.832 3.711 5.372 6.284 9.468 6.879l25.688 3.733c10.314 1.499 14.433 14.174 6.969 21.449l-18.588 18.119c-2.964 2.889-4.316 7.051-3.617 11.131l4.388 25.585c.245 1.429.045 4.118.045 4.118l-18.291.138-28.826-15.157-28.828 15.156-18.291-.138s-.2-2.689.045-4.118l4.388-25.585c.7-4.079-.653-8.242-3.617-11.131l-18.588-18.119c-7.464-7.275-3.345-19.951 6.969-21.449l25.688-3.733c4.096-.595 7.637-3.168 9.468-6.879l11.488-23.278c4.614-9.346 17.942-9.346 22.554.001z" fill="#fff5f5"/><g><path d="m258.424 216.154c-1.517-.798-3.33-.798-4.848 0l-44.687 23.493c1.254 8.088 10.341 13.315 18.283 9.14l22.976-12.079c3.663-1.926 8.04-1.926 11.704 0l22.976 12.079c7.942 4.175 17.029-1.052 18.283-9.14z" fill="#efe2dd"/></g></g></g></svg>