<svg id="Capa_1" enable-background="new 0 0 512 512" height="512" viewBox="0 0 512 512" width="512" xmlns="http://www.w3.org/2000/svg"><g><g><path d="m411.115 5.161v85.44l-13.825 20.242-81.902 63.159h-118.776l-84.045-64.811-11.682-18.589v-85.441c0-2.851 2.311-5.161 5.161-5.161h299.906c2.852 0 5.163 2.311 5.163 5.161z" fill="#0083fd"/><path d="m196.612 164.421-95.727-73.82v16.043c0 1.6.742 3.11 2.009 4.087l54.79 42.252 19.464 6.009 19.464 24.009 59.388 9 59.388-9 19.751-24.231 19.186-5.795 54.78-42.244c1.267-.977 2.009-2.487 2.009-4.087v-16.043l-95.727 73.82z" fill="#0072fc"/><path d="m311.528 215.936h-111.056c-15.612 0-28.268-12.656-28.268-28.268v-4.667h167.592v4.667c0 15.612-12.656 28.268-28.268 28.268z" fill="#ffe27a"/><path d="m311.528 206.356h-111.056c-13.935 0-25.507-10.086-27.834-23.354h-.434v13.667c0 15.612 12.656 28.268 28.268 28.268h111.056c15.612 0 28.268-12.656 28.268-28.268v-13.667h-.435c-2.327 13.268-13.898 23.354-27.833 23.354z" fill="#f9cf58"/><path d="m381.97 316.419c-10.981 0-20.215 7.462-22.919 17.591l-61.842-8.986-27.95-56.633c6.318-4.262 10.473-11.486 10.473-19.68 0-13.102-10.621-23.724-23.724-23.724-13.102 0-23.724 10.621-23.724 23.724 0 8.195 4.155 15.418 10.473 19.68l-27.95 56.633-61.858 8.988c-2.703-10.13-11.938-17.594-22.92-17.594-13.102 0-23.724 10.621-23.724 23.724 0 13.102 10.621 23.724 23.724 23.724 5.255 0 10.109-1.712 14.041-4.604l45.273 44.131-10.493 61.18c-.272-.009-.543-.021-.817-.021-13.102 0-23.724 10.622-23.724 23.724s10.621 23.724 23.724 23.724c13.102 0 23.724-10.621 23.724-23.724 0-2.555-.409-5.013-1.156-7.319l11.286-14.933 44.122-23.196 44.783 23.544 10.624 14.586c-.747 2.306-1.156 4.764-1.156 7.319 0 13.102 10.622 23.724 23.724 23.724s23.724-10.621 23.724-23.724c0-13.102-10.621-23.724-23.724-23.724-.274 0-.545.011-.817.021l-10.493-61.18 45.266-44.124c3.93 2.888 8.78 4.597 14.031 4.597 13.102 0 23.724-10.621 23.724-23.724-.001-13.103-10.622-23.724-23.725-23.724z" fill="#ffcb5b"/><path d="m308.656 460.926-50.223-26.403c-1.517-.797-3.324-.793-4.834.016-7.122 3.818-28.921 15.509-50.285 27.016-1.672.9-2.713 2.645-2.713 4.544v14.859l55.407-29.129 55.407 29.129v-15.463c0-1.918-1.062-3.677-2.759-4.569z" fill="#f7b737"/><path d="m163.571 148.522 24.504 18.896 8.537-2.997v-164.421h-38.927v134.402z" fill="#8bcaff"/><path d="m157.685 152.983 38.927 30.019v-18.581l-38.927-30.019z" fill="#60b8ff"/><path d="m348.445 148.522-24.503 18.896-8.538-2.997v-164.421h38.927v134.402z" fill="#8bcaff"/><path d="m354.331 152.983-38.927 30.019v-18.581l38.927-30.019z" fill="#60b8ff"/></g><path d="m354.842 190.743h-197.684c-4.276 0-7.742-3.466-7.742-7.742s3.466-7.742 7.742-7.742h197.684c4.276 0 7.742 3.466 7.742 7.742s-3.466 7.742-7.742 7.742z" fill="#ff9838"/></g></svg>