<svg id="Capa_1" enable-background="new 0 0 512 512" height="512" viewBox="0 0 512 512" width="512" xmlns="http://www.w3.org/2000/svg"><g><g><path d="m364.974 353.26 12.122 2.844 39.354 113.066c1.254 3.601-1.664 7.284-5.457 6.886l-55.163-5.776c-1.541-.161-3.073.372-4.18 1.455l-39.655 38.779c-2.726 2.666-7.3 1.591-8.553-2.01l-39.612-113.805 5.731-8.399z" fill="#ff4755"/><path d="m263.83 394.699-8.004-22.995 113.29-38.526 7.98 22.927c-32.169 22.955-71.122 37.007-113.266 38.594z" fill="#fc2b3a"/><path d="m146.852 353.26-12.122 2.844-39.354 113.066c-1.254 3.601 1.664 7.284 5.457 6.886l55.163-5.776c1.541-.161 3.073.372 4.18 1.455l39.655 38.779c2.726 2.666 7.3 1.591 8.553-2.01l39.611-113.805-5.731-8.399z" fill="#ff4755"/><path d="m247.996 394.699 8.004-22.995-113.29-38.526-7.98 22.927c32.169 22.955 71.122 37.007 113.266 38.594z" fill="#fc2b3a"/><path d="m256 358.607c-185.62 0-185.774-179.019-185.62-182.122 4.879-98.291 86.118-176.485 185.62-176.485s180.741 78.194 185.62 176.485c.154 3.103.232 182.122-185.62 182.122z" fill="#ffcb5b"/><path d="m256 352.969c-99.502 0-180.738-78.194-185.618-176.484-.154 3.103-.234 6.226-.234 9.367 0 102.643 83.209 185.852 185.852 185.852s185.852-83.209 185.852-185.852c0-3.141-.08-6.264-.234-9.367-4.88 98.29-86.116 176.484-185.618 176.484z" fill="#f7b737"/><path d="m256 320.029c-146.117 0-146.313-140.447-146.117-143.545 4.83-76.496 68.403-137.044 146.117-137.044s141.287 60.548 146.117 137.044c.196 3.098.295 143.545-146.117 143.545z" fill="#ff9838"/><path d="m256 313.529c-77.714 0-141.274-60.55-146.105-137.044-.196 3.098-.307 6.22-.307 9.367 0 80.861 65.551 146.412 146.412 146.412s146.412-65.551 146.412-146.412c0-3.148-.111-6.269-.307-9.367-4.831 76.494-68.392 137.044-146.105 137.044z" fill="#ff8709"/><path d="m269.403 114.533 13.655 27.668c2.177 4.411 6.386 7.469 11.254 8.176l30.533 4.437c12.26 1.781 17.155 16.847 8.284 25.495l-22.094 21.536c-3.523 3.434-5.13 8.381-4.299 13.23l5.216 30.41c.495 2.884-.791 8.007-.791 8.007h-20.896l-34.265-19.265-34.265 19.264-20.724.417s-1.487-5.371-.963-8.424l5.216-30.41c.832-4.849-.776-9.796-4.299-13.23l-22.094-21.536c-8.871-8.647-3.976-23.713 8.284-25.495l30.533-4.437c4.868-.707 9.077-3.765 11.254-8.176l13.655-27.668c5.482-11.108 21.324-11.108 26.806.001z" fill="#fff5f5"/><g><path d="m253.578 225.766-52.731 27.723c3.067 7.76 12.513 12.156 20.888 7.753l27.31-14.358c4.354-2.289 9.556-2.289 13.911 0l27.31 14.358c8.375 4.403 17.822.007 20.888-7.753l-52.731-27.723c-1.518-.797-3.329-.797-4.845 0z" fill="#efe2dd"/></g></g></g></svg>