<svg id="Capa_1" enable-background="new 0 0 512 512" height="512" viewBox="0 0 512 512" width="512" xmlns="http://www.w3.org/2000/svg"><g><g><path d="m256 499.599c-143.236 0-143.432-137.35-143.236-140.422 4.788-74.94 67.087-134.241 143.236-134.241s138.448 59.3 143.236 134.241c.196 3.072 0 140.422-143.236 140.422z" fill="#ffcb5b"/><path d="m256 493.419c-76.148 0-138.435-59.302-143.224-134.241-.196 3.073-.308 6.168-.308 9.29 0 79.271 64.262 143.532 143.532 143.532s143.532-64.261 143.532-143.532c0-3.122-.111-6.218-.307-9.29-4.79 74.939-67.077 134.241-143.225 134.241z" fill="#f7b737"/><path d="m354.343 175.26h-196.686l-9-10.839v-159.26c0-2.851 2.311-5.161 5.161-5.161h204.363c2.85 0 5.161 2.311 5.161 5.161v159.26z" fill="#609e3f"/><path d="m148.657 164.421h214.686v18.581h-214.686z" fill="#548736"/><path d="m302.695 175.26h-93.39l-9-10.839v-164.421h111.39v164.421z" fill="#98db7c"/><path d="m200.305 164.421h111.389v18.581h-111.389z" fill="#82d361"/><path d="m340.785 215.936h-169.57s-33.6-6.043-33.6-24.599v-8.335h236.769v8.335c.001 18.556-33.599 24.599-33.599 24.599z" fill="#ffe27a"/><path d="m340.785 206.356h-169.57c-14.983 0-27.67-9.809-32.003-23.354h-1.597v8.335c0 18.556 15.043 33.599 33.6 33.599h169.57c18.557 0 33.6-15.043 33.6-33.599v-8.335h-1.597c-4.333 13.545-17.02 23.354-32.003 23.354z" fill="#f9cf58"/><path d="m256 464.492c-107.488 0-107.748-102.253-107.486-105.315 4.711-55.231 51.035-98.59 107.486-98.59 55.857 0 101.799 42.451 107.324 96.851.368 3.627.002 107.054-107.324 107.054z" fill="#ff9838"/><path d="m256 457.769c-56.451 0-102.767-43.36-107.479-98.591-.261 3.063-.402 6.16-.402 9.29 0 59.581 48.3 107.881 107.881 107.881s107.881-48.3 107.881-107.881c0-3.13-.141-6.228-.402-9.29-4.712 55.231-51.028 98.591-107.479 98.591z" fill="#ff8709"/><path d="m266.203 307.771 10.395 21.062c1.657 3.358 4.861 5.686 8.567 6.224l23.244 3.377c9.333 1.356 13.059 12.825 6.306 19.408l-16.819 16.395c-2.682 2.614-3.905 6.38-3.272 10.071l3.97 23.15c.127.742.171 2.18.171 2.18h-16.681l-26.084-12.897-26.085 12.899h-16.681s.044-1.438.171-2.18l3.97-23.15c.633-3.691-.591-7.457-3.272-10.071l-16.819-16.395c-6.753-6.583-3.027-18.052 6.306-19.408l23.244-3.377c3.706-.538 6.91-2.866 8.567-6.224l10.395-21.062c4.174-8.458 16.234-8.458 20.407-.002z" fill="#fff5f5"/><g><path d="m253.598 388.423-40.356 21.216c.128 8.173 8.993 13.853 16.673 9.815l20.79-10.93c3.315-1.743 7.275-1.743 10.59 0l20.79 10.93c7.68 4.038 16.545-1.642 16.673-9.815l-40.356-21.216c-1.504-.791-3.3-.791-4.804 0z" fill="#efe2dd"/></g></g><path d="m395.641 190.743h-279.282c-4.276 0-7.742-3.466-7.742-7.742s3.466-7.742 7.742-7.742h279.282c4.276 0 7.742 3.466 7.742 7.742s-3.466 7.742-7.742 7.742z" fill="#ff9838"/></g></svg>