<svg id="Capa_1" enable-background="new 0 0 512 512" height="512" viewBox="0 0 512 512" width="512" xmlns="http://www.w3.org/2000/svg"><g><path d="m481.877 359.421v-9.581-206.261c0-11.131-5.939-21.417-15.579-26.983l-194.719-112.422c-9.64-5.566-21.517-5.566-31.157 0l-194.72 112.422c-9.64 5.566-15.579 15.852-15.579 26.983v206.262 9.581c0 11.131 5.938 21.417 15.579 26.983l194.72 112.422c9.64 5.566 21.517 5.566 31.157 0l194.72-112.422c9.639-5.566 15.578-15.852 15.578-26.984z" fill="#ff4755"/><path d="m466.298 376.824-194.719 112.421c-9.64 5.566-21.517 5.566-31.157 0l-194.72-112.421c-9.64-5.566-15.579-15.851-15.579-26.983v18.581c0 11.131 5.938 21.417 15.579 26.983l194.719 112.422c9.64 5.566 21.517 5.566 31.157 0l194.719-112.422c9.64-5.566 15.579-15.852 15.579-26.983v-18.581c.001 11.131-5.938 21.417-15.578 26.983z" fill="#fc2b3a"/><path d="m440.556 343.973v-191.547c0-1.844-.984-3.548-2.581-4.47l-179.394-103.573c-1.597-.922-3.564-.922-5.161 0l-179.396 103.573c-1.597.922-2.581 2.626-2.581 4.47v191.547l10.788 15.809 173.769 100.325 173.768-100.325z" fill="#fff5f5"/><path d="m71.443 343.973v15.601c0 1.844.984 3.548 2.581 4.47l179.395 103.574c1.597.922 3.564.922 5.161 0l179.395-103.574c1.597-.922 2.581-2.626 2.581-4.47v-15.601l-181.975 105.064c-1.597.922-3.564.922-5.161 0z" fill="#efe2dd"/><g><path d="m348.229 244.391h-184.459l-9 9.581v87.282c0 11.402 9.243 20.645 20.645 20.645h72.842l7.742-9 7.742 9h72.842c11.402 0 20.645-9.243 20.645-20.645v-87.282z" fill="#ffcb5b"/><path d="m154.77 235.391v18.581h202.46v-18.581l-101.233-9z" fill="#f7b737"/><path d="m326.589 135.675c-16.119-4.528-41.447 17.071-53.919 29.03l2.027 13.258 9 9.581h44.016l11.699-9.581c1.447-16.47.7-38.489-12.823-42.288z" fill="#ff4755"/><path d="m274.698 177.964-9 9.581 9 9 31.606 9 30.411-9s1.785-8.186 2.698-18.581z" fill="#fc2b3a"/><path d="m239.327 164.702c-12.473-11.96-37.798-33.555-53.916-29.027-13.523 3.799-14.271 25.818-12.825 42.288l11.699 9.581h44.011l9-9.581z" fill="#ff4755"/><path d="m172.587 177.964c.913 10.394 2.698 18.581 2.698 18.581l30.409 9 31.602-9 9-9-9-9.581z" fill="#fc2b3a"/><path d="m265.698 187.544h-19.401l-9-9.581v-8.325c0-3.879 3.144-7.023 7.023-7.023h23.356c3.879 0 7.023 3.144 7.023 7.023v8.325z" fill="#c61926"/><path d="m237.297 177.964v18.58l18.7 9 18.701-9v-18.58z" fill="#b2182b"/><path d="m248.258 361.899h15.484v-107.927l-7.742-9.581-7.742 9.581z" fill="#c61926"/><path d="m248.258 253.972h15.484v-18.581l-7.742-9-7.742 9z" fill="#b2182b"/><path d="m361.568 226.391h-211.136l-9-9.581v-15.105c0-2.851 2.311-5.161 5.161-5.161h101.665l7.742 9 7.742-9h101.665c2.85 0 5.161 2.311 5.161 5.161v15.105z" fill="#ffe27a"/><path d="m146.593 235.391h101.665l7.739-9 7.745 9h101.665c2.85 0 5.161-2.311 5.161-5.161v-13.419h-229.136v13.419c0 2.851 2.311 5.161 5.161 5.161z" fill="#f9cf58"/><path d="m255.997 226.391 7.745-9.58v-20.267h-15.484v20.267z" fill="#ff4755"/><path d="m248.258 235.391h7.739 7.745v-18.58h-15.484z" fill="#fc2b3a"/></g></g></svg>