<svg id="Capa_1" enable-background="new 0 0 512 512" height="512" viewBox="0 0 512 512" width="512" xmlns="http://www.w3.org/2000/svg"><g><g><path d="m256 504.221 142.278-100.91 4.104-15.068-51.726-159.195c-.693-2.132-2.679-3.575-4.92-3.575h-179.472c-2.241 0-4.228 1.443-4.92 3.575l-51.726 159.195 4.104 15.068z" fill="#ffba57"/><path d="m252.959 492.387-143.341-104.144-3.734 11.493c-.693 2.132.066 4.467 1.879 5.784l145.196 105.491c1.813 1.318 4.269 1.318 6.082 0l145.196-105.491c1.813-1.317 2.572-3.653 1.879-5.784l-3.734-11.493-143.341 104.144c-1.813 1.317-4.269 1.317-6.082 0z" fill="#ffac3e"/><path d="m311.66 216.473h-111.32c-15.649 0-28.335-12.686-28.335-28.335v-4.699h167.992v4.699c-.001 15.649-12.687 28.335-28.337 28.335z" fill="#ffe27a"/><path d="m311.66 206.848h-111.32c-13.968 0-25.567-10.11-27.9-23.41h-.436v13.699c0 15.649 12.686 28.335 28.336 28.335h111.32c15.649 0 28.336-12.686 28.336-28.335v-13.699h-.435c-2.333 13.3-13.933 23.41-27.901 23.41z" fill="#f9cf58"/><g><g><path d="m411.485 5.174v85.644l-10.755 19.158-85.2 65.702h-119.059l-85.471-65.911-10.484-18.95v-85.643c0-2.857 2.316-5.174 5.174-5.174h300.622c2.856 0 5.173 2.316 5.173 5.174z" fill="#c61926"/></g></g><path d="m196.471 164.813-95.955-73.996v16.081c0 1.604.744 3.117 2.014 4.097l93.941 72.443h119.059l93.941-72.442c1.27-.98 2.014-2.493 2.014-4.097v-16.082l-95.955 73.996z" fill="#b2182b"/><path d="m268.678 280.199 12.915 26.17c2.059 4.173 6.04 7.065 10.645 7.734l28.88 4.196c11.596 1.685 16.226 15.935 7.835 24.114l-20.898 20.37c-3.332 3.248-4.852 7.927-4.066 12.513l4.933 28.763c.416 2.428.21 4.734-.473 6.813h-20.04l-32.409-17.948-32.41 17.948h-20.04c-.683-2.078-.889-4.385-.473-6.813l4.933-28.763c.787-4.586-.734-9.266-4.066-12.513l-20.898-20.37c-8.391-8.179-3.761-22.429 7.835-24.114l28.88-4.196c4.605-.669 8.585-3.561 10.645-7.734l12.915-26.17c5.187-10.508 20.171-10.508 25.357 0z" fill="#fff5f5"/><g><path d="m253.593 384.565-50.035 26.305c2.565 7.809 11.842 12.399 20.033 8.093l25.831-13.58c4.118-2.165 9.039-2.165 13.157 0l25.831 13.58c8.191 4.306 17.468-.284 20.033-8.093l-50.035-26.305c-1.508-.793-3.308-.793-4.815 0z" fill="#efe2dd"/></g><path d="m306.53 175.678h-101.059l-9-10.865v-164.813h119.059v164.813z" fill="#ff4755"/><path d="m196.471 164.813h119.059v18.625h-119.059z" fill="#fc2b3a"/><path d="m355.078 191.199h-198.155c-4.286 0-7.76-3.474-7.76-7.76s3.474-7.76 7.76-7.76h198.155c4.286 0 7.76 3.474 7.76 7.76s-3.474 7.76-7.76 7.76z" fill="#ff9838"/></g></g></svg>