<svg id="Capa_1" enable-background="new 0 0 512 512" height="512" viewBox="0 0 512 512" width="512" xmlns="http://www.w3.org/2000/svg"><g><g><path d="m271.737 230.347c13.536-10.287 33.141-5.034 39.72 10.643 4.521 10.772 15.669 17.208 27.258 15.737 16.866-2.141 31.218 12.211 29.077 29.077-1.471 11.589 4.965 22.737 15.737 27.258 15.677 6.579 20.93 26.184 10.643 39.72-7.068 9.301-7.068 22.174 0 31.475 10.287 13.536 5.034 33.141-10.643 39.72-9.846 4.132-16.07 13.802-15.943 24.284l-10.871 23.051-27.91.705-17.348 15.032-23.735 15.36-15.985-4.717h-31.475l-15.979 4.719-23.741-15.361-17.901-15.225-27.356-.512s-10.883-22.065-10.871-23.051c.127-10.482-6.097-20.152-15.943-24.284-15.677-6.579-20.93-26.184-10.643-39.72 7.068-9.301 7.068-22.173 0-31.475-10.287-13.536-5.034-33.141 10.643-39.72 10.772-4.521 17.208-15.669 15.737-27.258-2.141-16.866 12.211-31.218 29.077-29.077 11.589 1.471 22.737-4.965 27.258-15.737 6.579-15.677 26.184-20.93 39.72-10.643 9.301 7.067 22.173 7.067 31.474-.001z" fill="#ffcb5b"/><g><path d="m367.606 448.259c-5.313 8.48-15.231 13.819-26.177 12.43-11.969-1.519-23.483 5.128-28.152 16.254-6.795 16.191-27.043 21.617-41.023 10.992-9.606-7.301-22.901-7.301-32.507 0-13.98 10.625-34.228 5.199-41.023-10.992-4.669-11.126-16.183-17.773-28.152-16.254-10.946 1.389-20.864-3.949-26.177-12.43-.012.986-.059 1.977-.186 2.974-2.141 16.866 12.211 31.218 29.077 29.077 11.589-1.471 22.737 4.965 27.258 15.737 6.579 15.677 26.184 20.93 39.72 10.643 9.301-7.069 22.173-7.069 31.474 0 13.536 10.287 33.141 5.034 39.72-10.643 4.521-10.772 15.669-17.208 27.258-15.737 16.866 2.141 31.218-12.211 29.077-29.077-.128-.997-.175-1.987-.187-2.974z" fill="#f7b737"/></g><path d="m311.528 215.936h-111.056c-15.612 0-28.268-12.656-28.268-28.268v-4.667h167.592v4.667c0 15.612-12.656 28.268-28.268 28.268z" fill="#ffe27a"/><path d="m311.528 206.356h-111.056c-13.935 0-25.507-10.086-27.834-23.354h-.434v13.667c0 15.612 12.656 28.268 28.268 28.268h111.056c15.612 0 28.268-12.656 28.268-28.268v-13.667h-.435c-2.327 13.268-13.898 23.354-27.833 23.354z" fill="#f9cf58"/><path d="m323.317 2.524-67.317 113.231.43 27.182 28.503 21.484 20.046 10.839h12.925l20.046-10.839 93.113-156.622c2.046-3.441-.434-7.799-4.436-7.799h-98.873c-1.821 0-3.507.959-4.437 2.524z" fill="#609e3f"/><path d="m295.979 183.002h30.924l11.047-18.581h-53.018z" fill="#548736"/><path d="m277.979 175.26h-74.882l-29.046-10.839-93.114-156.622c-2.046-3.441.434-7.799 4.436-7.799h98.873c1.82 0 3.506.959 4.437 2.524l96.25 161.897z" fill="#98db7c"/><path d="m185.097 183.002h110.882l-11.047-18.581h-110.882z" fill="#82d361"/><g><path d="m256 456.687c-100.475 0-100.331-94.401-100.051-97.46 4.688-51.135 47.693-91.184 100.051-91.184s95.362 40.049 100.051 91.184c.28 3.06.001 97.46-100.051 97.46z" fill="#ff9838"/></g><path d="m256 450.413c-52.358 0-95.354-40.05-100.044-91.185-.28 3.06-.431 6.157-.431 9.29 0 55.491 44.984 100.475 100.475 100.475s100.475-44.984 100.475-100.475c0-3.133-.151-6.23-.431-9.29-4.69 51.134-47.686 91.185-100.044 91.185z" fill="#ff8709"/><path d="m264.698 319.751 8.861 17.955c1.413 2.863 4.144 4.847 7.303 5.306l19.814 2.879c7.956 1.156 11.133 10.933 5.376 16.544l-14.337 13.976c-2.286 2.228-3.329 5.439-2.79 8.585l3.204 18.683h-13.893l-22.236-9.413-22.236 9.414h-13.893l3.204-18.683c.54-3.146-.504-6.357-2.79-8.585l-14.338-13.976c-5.757-5.612-2.58-15.388 5.376-16.544l19.814-2.879c3.159-.459 5.89-2.443 7.303-5.306l8.861-17.955c3.559-7.21 13.839-7.21 17.397-.001z" fill="#fff5f5"/><g><path d="m292.129 403.68-33.727-17.732c-1.504-.79-3.292-.795-4.796-.004-8.064 4.239-33.735 17.736-33.735 17.736l-.18 1.052c-1.359 7.924 6.958 13.966 14.074 10.225l17.722-9.317c2.826-1.486 6.202-1.486 9.027 0l17.722 9.317c7.116 3.741 15.432-2.302 14.074-10.225z" fill="#efe2dd"/></g><path d="m354.842 190.744h-197.684c-4.276 0-7.742-3.466-7.742-7.742s3.466-7.742 7.742-7.742h197.684c4.276 0 7.742 3.466 7.742 7.742s-3.466 7.742-7.742 7.742z" fill="#ff9838"/></g></g></svg>