<svg id="Capa_1" enable-background="new 0 0 512 512" height="512" viewBox="0 0 512 512" width="512" xmlns="http://www.w3.org/2000/svg"><g><g><path d="m456.617 412.196-54.721 7.204 7.524 13.399-13.863 6.146-7.798 24.046c-.846 2.608.477 5.429 3.022 6.447 37.989 15.181 64.167 32.452 76.567 41.544 3.428 2.514 8.255.089 8.293-4.162l.306-33.753c.017-1.913 1.08-3.662 2.77-4.559l28.928-15.357c3.364-1.786 3.748-6.455.714-8.757-8.71-6.606-26.268-18.939-51.742-32.198z" fill="#c61926"/><g><g><path d="m438.44 453.766 5.803-13.299c-.428-.284-7.415-18.785-7.415-18.785l-34.932-2.282-6.339 19.545c17.118 7.009 29.192 13.559 35.478 17.24 2.695 1.579 6.156.443 7.405-2.419z" fill="#b2182b"/></g></g><path d="m119.631 142.395-18.682-10.446-22.298 9.016c-1.968.796-3.257 2.705-3.26 4.828l-.218 154.66c-.065 40.91 14.863 80.652 42.541 112.264.816.932 1.647 1.867 2.493 2.804l14.999 6.417-1.303 7.626c27.087 25.742 65.894 51.598 120.492 69.1 1.04.333 2.172.333 3.212 0 54.599-17.501 93.406-43.358 120.493-69.1l-2.328-6.574 16.023-7.47c.846-.937 1.677-1.872 2.493-2.804 27.677-31.612 42.606-71.354 42.541-112.264l-.218-154.66c-.003-2.123-1.292-4.032-3.26-4.828l-22.298-9.016-18.682 10.446h-272.74z" fill="#ffe27a"/><path d="m411.051 131.949-18.682-7.554h-272.738l-18.682 7.554c-.059 1.754-.099 3.512-.099 5.28 0 85.849 69.463 155.443 155.15 155.443s155.149-69.594 155.149-155.443c.001-1.768-.04-3.526-.098-5.28z" fill="#f9cf58"/><path d="m256 391.79c-56.808 0-103.239 11.759-135.783 23.721 4.195 4.646 8.739 9.344 13.69 14.049 31.369-10.15 72.829-18.994 122.093-18.994s90.724 8.845 122.093 18.994c4.951-4.705 9.495-9.403 13.69-14.049-32.545-11.961-78.975-23.721-135.783-23.721z" fill="#f9cf58"/><path d="m55.383 412.196 54.721 7.204-7.524 13.4 13.863 6.146 7.799 24.046c.846 2.608-.476 5.429-3.022 6.447-37.989 15.181-64.168 32.452-76.567 41.544-3.428 2.514-8.255.089-8.293-4.162l-.306-33.753c-.017-1.913-1.08-3.662-2.77-4.559l-28.928-15.358c-3.364-1.786-3.748-6.455-.714-8.757 8.71-6.606 26.267-18.939 51.741-32.198z" fill="#c61926"/><g><g><path d="m73.56 453.766-5.803-13.299c.428-.284 7.415-18.785 7.415-18.785l34.932-2.282 6.339 19.545c-17.118 7.009-29.192 13.559-35.478 17.24-2.694 1.579-6.156.443-7.405-2.419z" fill="#b2182b"/></g></g><path d="m436.828 421.682s-65.226-38.891-180.828-38.891-180.828 39.378-180.828 39.378l-16.805-3.135-20.542-47.076c-1.046-2.396-.159-5.2 2.081-6.548 18.035-10.857 97.84-54.47 216.095-54.47s198.06 43.612 216.095 54.47c2.24 1.348 3.126 4.152 2.081 6.548l-20.542 47.076z" fill="#ff4755"/><path d="m256 369.478c-107.013 0-179.719 38.897-197.633 49.556l9.361 21.452s72.671-48.695 188.272-48.695 188.272 48.695 188.272 48.695l9.361-21.452c-17.914-10.658-90.62-49.556-197.633-49.556z" fill="#fc2b3a"/><g><g><path d="m392.97 137.229c0-5.072-.275-10.079-.81-15.008l-24.452-64.42c-18.325-25.823-45.346-45.019-76.785-53.301h-69.848c-31.438 8.281-58.46 27.477-76.785 53.3l-24.452 64.42c-.535 4.929-.81 9.936-.81 15.008 0 29.33 11.149 50.033 26.793 72.335l58.508 49.906h103.337l58.706-49.255c15.646-22.301 26.598-43.655 26.598-72.985z" fill="#5a5a5a"/></g><path d="m256 255.683c-72.496 0-131.828-56.432-136.645-127.842-.209 3.103-.325 6.232-.325 9.388 0 29.33 9.184 56.51 24.828 78.813l32.87 20.865 27.604 27.452c15.944 6.511 33.388 10.099 51.669 10.099s35.724-3.588 51.668-10.099l23.095-24.327 37.379-23.991c15.644-22.303 24.827-49.483 24.827-78.813 0-3.156-.116-6.285-.325-9.388-4.817 71.412-64.149 127.843-136.645 127.843z" fill="#4c4c4c"/><path d="m392.151 122.222c-2.588-23.838-11.261-45.845-24.443-64.421l-53.698-1.609-23.088-51.684c-11.15-2.937-22.852-4.508-34.922-4.508s-23.772 1.571-34.922 4.508l-23.088 51.685-53.698 1.609c-13.182 18.576-21.855 40.583-24.443 64.421l40.138 40.555-12.092 39.944 1.863 14.312 52.58 36.079 25.385-.363 28.277-14.029 28.277 14.027 23.416 3.252 50.903-36.509 5.51-16.769-12.092-39.944zm-136.151 72.599-51.693-37.628 19.745-60.883h63.895l19.745 60.883z" fill="#e0e0e0"/><path d="m147.895 202.721-4.031 13.317c15.012 21.401 35.971 38.306 60.472 48.312l23.387-11.601c-32.233-6.78-60.295-24.909-79.828-50.028z" fill="#c4c4c4"/><path d="m284.278 252.748 23.387 11.601c24.501-10.006 45.46-26.91 60.472-48.312l-4.031-13.317c-19.534 25.12-47.596 43.249-79.828 50.028z" fill="#c4c4c4"/><path d="m369.114 157.047-64.088-8.075-13.973-43.084 34.738-53.471c2.354-3.623 1.325-8.469-2.298-10.822-3.621-2.354-8.468-1.324-10.822 2.298l-34.052 52.417h-45.238l-41.568-63.984c-2.354-3.623-7.2-4.653-10.822-2.298-3.623 2.353-4.652 7.199-2.298 10.822l42.253 65.039-13.972 43.084-61.662 7.77c-4.286.541-7.324 4.453-6.784 8.74.498 3.955 3.867 6.846 7.752 6.846.326 0 .656-.02.988-.062l66.273-8.351 34.636 25.212v57.323c0 4.321 3.502 7.823 7.823 7.823s7.823-3.502 7.823-7.823v-57.323l34.635-25.212 68.7 8.656c.332.042.661.062.988.062 3.884 0 7.254-2.892 7.752-6.846.54-4.287-2.497-8.201-6.784-8.741z" fill="#5a5a5a"/></g></g></g></svg>