<svg id="Capa_1" enable-background="new 0 0 512 512" height="512" viewBox="0 0 512 512" width="512" xmlns="http://www.w3.org/2000/svg"><g><g><path d="m512 256c0 141.385-135.684 247-256 247-127.881 0-256-105.615-256-247l74.981-181.019c46.327-46.327 110.327-74.981 181.019-74.981l181.019 74.981c44.29 44.29 72.427 104.733 74.816 171.735.11 3.081.165 6.176.165 9.284z" fill="#98db7c"/><g><g fill="#609e3f"><path d="m402.455 109.545 34.564-34.564c-46.327-46.327-110.327-74.981-181.019-74.981v48.881l66.022 38.842z"/><path d="m109.545 109.545-34.564-34.564c-46.327 46.327-74.981 110.327-74.981 181.019h48.881l45.655-70.148z"/><path d="m463.119 256-35.634 67.849-25.03 78.607 25.018 25.019 9.546.546c46.327-46.329 74.981-101.329 74.981-172.021z"/></g><g><path d="m256 493.419-9 9.581 9 9c70.692 0 134.692-28.654 181.019-74.981v-9.357l-9.545-.189c-45.384 40.981-105.507 65.946-171.474 65.946z" fill="#82d361"/></g><g fill="#82d361"><path d="m.185 246.711v-.001.008z"/><path d="m.705 256h-.705c0 70.692 28.654 134.692 74.981 181.019h9.545l-.012-9.534.012-.012c-47.585-42.967-78.946-103.55-83.821-171.473z"/><path d="m0 256c0-1.71.031-3.412.065-5.114-.039 1.701-.065 3.404-.065 5.114z"/></g><path d="m109.545 402.455-25.03 25.03-.534 9.534c48.137 43.064 96.258 60.351 163.019 65.981l9-9.581v-30.3l-75.401-32.74z" fill="#609e3f"/><path d="m74.981 437.019c46.327 46.327 110.326 74.981 181.019 74.981v-18.581c-65.965 0-126.097-24.956-171.486-65.934z" fill="#548736"/><path d="m427.486 427.486 9.534 9.534c46.326-46.328 74.98-110.328 74.98-181.02h-.676c-4.873 67.929-36.244 128.517-83.838 171.486z" fill="#548736"/><path d="m256 450.276c-206.915 0-207.05-200.487-206.914-203.567 4.859-110.077 95.639-197.828 206.914-197.828s202.055 87.751 206.914 197.828c.136 3.08 0 203.567-206.914 203.567z" fill="#ffe27a"/><path d="m256 444.538c-111.274 0-202.041-87.753-206.902-197.829-.136 3.081-.217 6.176-.217 9.29 0 114.389 92.73 207.119 207.119 207.119s207.119-92.729 207.119-207.118c0-3.114-.082-6.209-.218-9.29-4.86 110.075-95.627 197.828-206.901 197.828z" fill="#f9cf58"/></g></g><g><path d="m329.76 130.608c-16.843-4.731-43.309 17.837-56.341 30.334l2.118 14.688 9 9.581h46.802l11.73-9.418c1.628-17.305 1.096-41.139-13.309-45.185z" fill="#ff4755"/><path d="m182.24 130.608c16.843-4.731 43.309 17.837 56.341 30.334l-2.118 14.688-9 9.581h-46.803l-11.73-9.418c-1.627-17.305-1.095-41.139 13.31-45.185z" fill="#ff4755"/><path d="m236.462 175.631 9 9.29-9 9.29-33.025 9-31.777-9s-1.771-8.119-2.744-18.581h67.546z" fill="#fc2b3a"/><path d="m266.538 185.211h-21.081l-9-9.581v-9.534c0-4.053 3.285-7.338 7.338-7.338h24.405c4.053 0 7.338 3.285 7.338 7.338v9.534z" fill="#c61926"/><path d="m275.538 175.631-9 9.29 9 9.29 33.025 9 31.777-9s1.771-8.119 2.744-18.581h-67.546z" fill="#fc2b3a"/><path d="m236.456 175.631v18.58l19.544 9 19.538-9v-18.58z" fill="#b2182b"/><path d="m352.777 243.803h-193.554l-9 9.581v92.038c0 11.914 9.658 21.573 21.572 21.573h76.463l7.742-9 7.742 9h76.463c11.914 0 21.573-9.659 21.573-21.573v-92.038z" fill="#0083fd"/><path d="m150.223 234.803v18.581h211.554v-18.581l-105.777-9z" fill="#0072fc"/><path d="m366.715 225.803h-221.43l-9-9.581v-16.85c0-2.851 2.311-5.161 5.161-5.161h106.812l7.742 9 7.742-9h44.821 61.99c2.85 0 5.161 2.311 5.161 5.161v16.85z" fill="#8bcaff"/><path d="m141.447 234.803h229.107c2.85 0 5.161-2.311 5.161-5.161v-13.419h-239.43v13.419c0 2.851 2.311 5.161 5.162 5.161z" fill="#60b8ff"/><path d="m256 225.803 7.742-9.58v-22.012h-15.484v22.012z" fill="#ff4755"/><path d="m248.258 234.803 7.742 9 7.742-9v-18.58h-14.621-.863z" fill="#fc2b3a"/><path d="m248.258 366.994h15.484v-113.61l-7.745-9.581-7.739 9.581z" fill="#c61926"/><path d="m248.258 234.803h15.484v18.581h-15.484z" fill="#b2182b"/></g></g></svg>