<svg id="Capa_1" enable-background="new 0 0 512 512" height="512" viewBox="0 0 512 512" width="512" xmlns="http://www.w3.org/2000/svg"><g><g><path d="m469.85 135.35h-88.287l-9.69-9v-70.266c0-17.782 23.167-56.084 47.084-56.084 30.975 0 56.085 25.11 56.085 56.084v74.074c0 2.867-2.324 5.192-5.192 5.192z" fill="#9e9e9e"/><path d="m428.303.79c-3.041-.51-6.16-.79-9.346-.79-30.974 0-65.085 15.849-65.085 56.084v79.265h27.69v-79.265c.001-27.789 20.216-50.843 46.741-55.294z" fill="#898989"/><path d="m362.873 56.085c0-30.973 25.107-56.082 56.08-56.084h-56.08-269.829c-30.975-.001-56.086 25.11-56.086 56.086v396.8l9 9.69h307.915l9-9.69v-317.537z" fill="#e0e0e0"/><g><path d="m42.15 471.577h315.531c2.867 0 5.192-2.324 5.192-5.192v-13.498h-325.915v13.498c0 2.868 2.324 5.192 5.192 5.192z" fill="#cecece"/></g><path d="m229.736 448.436-9 7.828v50.538c0 3.814 3.974 6.326 7.419 4.689l26.188-12.44c1.41-.669 3.046-.669 4.455 0l26.188 12.44c3.445 1.636 7.419-.876 7.419-4.689v-50.538l-9-7.828z" fill="#ff4755"/><path d="m220.736 437.574v18.69c10.252 6.858 22.574 10.862 35.835 10.862 13.26 0 25.583-4.004 35.835-10.862v-18.69z" fill="#fc2b3a"/><path d="m320.439 374.549c-4.528-31.215-31.398-55.193-63.868-55.193s-59.34 23.978-63.868 55.193c-.443 3.052-.005 64.887 63.868 64.887s64.311-61.835 63.868-64.887z" fill="#ffe27a"/><path d="m256.571 429.746c-32.47 0-59.329-23.981-63.858-55.195-.443 3.052-.682 6.17-.682 9.345 0 35.645 28.896 64.54 64.54 64.54s64.54-28.896 64.54-64.54c0-3.175-.239-6.293-.682-9.345-4.529 31.214-31.389 55.195-63.858 55.195z" fill="#f9cf58"/><path d="m287.419 374.549c-4.006-13.239-16.301-22.878-30.848-22.878-14.46 0-26.696 9.524-30.776 22.642-.941 3.027-.045 32.807 30.776 32.807 30.889 0 31.743-29.613 30.848-32.571z" fill="#ff9838"/><path d="m256.571 397.43c-14.547 0-26.837-9.64-30.843-22.88-.895 2.958-1.381 6.095-1.381 9.345 0 17.797 14.427 32.225 32.225 32.225 17.797 0 32.224-14.427 32.224-32.225 0-3.25-.486-6.387-1.381-9.345-4.007 13.24-16.297 22.88-30.844 22.88z" fill="#ff8709"/></g><g fill="#9e9e9e"><path d="m243.718 90.373c4.309 0 7.803-3.493 7.803-7.803s-3.493-7.803-7.803-7.803h-85.082c-4.309 0-7.803 3.493-7.803 7.803s3.493 7.803 7.803 7.803z"/><path d="m86.582 133.126c0 4.31 3.493 7.803 7.803 7.803h213.585c4.309 0 7.803-3.493 7.803-7.803s-3.493-7.803-7.803-7.803h-213.585c-4.31 0-7.803 3.493-7.803 7.803z"/><path d="m94.385 191.484h213.585c4.309 0 7.803-3.493 7.803-7.803s-3.493-7.803-7.803-7.803h-213.585c-4.309 0-7.803 3.493-7.803 7.803s3.493 7.803 7.803 7.803z"/><path d="m94.385 292.595h213.585c4.309 0 7.803-3.493 7.803-7.803s-3.493-7.803-7.803-7.803h-213.585c-4.309 0-7.803 3.493-7.803 7.803s3.493 7.803 7.803 7.803z"/><path d="m94.385 343.151h60.216c4.309 0 7.803-3.493 7.803-7.803s-3.493-7.803-7.803-7.803h-60.216c-4.309 0-7.803 3.493-7.803 7.803s3.493 7.803 7.803 7.803z"/><path d="m94.385 242.04h213.585c4.309 0 7.803-3.493 7.803-7.803s-3.493-7.803-7.803-7.803h-213.585c-4.309 0-7.803 3.493-7.803 7.803s3.493 7.803 7.803 7.803z"/></g></g></svg>