<svg id="Capa_1" enable-background="new 0 0 512 512" height="512" viewBox="0 0 512 512" width="512" xmlns="http://www.w3.org/2000/svg"><g><g><path d="m456.617 412.196-54.721 7.204 8.494 16.031-14.833 3.514-7.798 24.046c-.846 2.608.476 5.429 3.022 6.447 37.989 15.181 64.168 32.452 76.567 41.544 3.428 2.514 8.255.089 8.293-4.162l.306-33.753c.017-1.913 1.08-3.662 2.77-4.559l28.928-15.357c3.364-1.786 3.748-6.455.714-8.757-8.711-6.606-26.268-18.939-51.742-32.198z" fill="#ff9838"/><g><g><path d="m438.44 453.766 5.803-13.299c-.403-.268-16.665-18.426-16.665-18.426l-25.683-2.641-6.339 19.545c17.118 7.009 29.192 13.559 35.478 17.24 2.695 1.579 6.157.443 7.406-2.419z" fill="#ff8709"/></g></g><path d="m119.631 149.995-18.682-18.046-22.298 9.016c-1.968.796-3.257 2.705-3.26 4.828l-.218 154.66c-.065 40.91 14.863 80.652 42.541 112.264.816.932 1.647 1.867 2.493 2.804l15.93 7.375-2.234 6.669c27.086 25.741 65.891 51.596 120.487 69.098 1.043.335 2.179.335 3.223 0 54.596-17.501 93.401-43.357 120.487-69.098l-2.234-6.669 15.929-7.375c.846-.937 1.677-1.872 2.493-2.804 27.677-31.612 42.606-71.354 42.541-112.264l-.218-154.66c-.003-2.123-1.292-4.032-3.26-4.828l-22.298-9.016-18.682 18.046z" fill="#98db7c"/><path d="m256 391.79c-56.808 0-103.239 11.759-135.783 23.721 4.195 4.646 8.739 9.344 13.69 14.049 31.369-10.15 72.829-18.994 122.093-18.994s90.724 8.845 122.093 18.994c4.951-4.705 9.495-9.403 13.69-14.049-32.545-11.961-78.975-23.721-135.783-23.721z" fill="#82d361"/><path d="m411.051 131.949-18.682-7.554h-272.738l-18.682 7.554c-.058 1.754-.099 3.512-.099 5.28 0 85.849 69.463 155.444 155.15 155.444s155.149-69.595 155.149-155.444c.001-1.768-.04-3.526-.098-5.28z" fill="#82d361"/><path d="m387.371 129.638 4.167-12.323c-4.597-31.685-20.001-59.861-42.344-80.654l-12.079-.015-.17-10.131c-20.71-15.225-45.85-24.757-73.122-26.296l-7.823 8.781-7.823-8.78c-27.272 1.539-52.412 11.071-73.122 26.296l.129 10.035-12.378.11c-22.343 20.793-37.746 48.969-42.344 80.654l5.056 10.526-5.084 24.32c9.544 52.401 66.603 113.297 135.566 113.297s126.022-60.896 135.566-113.297z" fill="#ff9838"/><path d="m256 255.683c-72.496 0-131.828-56.432-136.645-127.842-.209 3.103-.325 6.232-.325 9.387 0 39.182 16.39 74.529 42.676 99.533l7.55-2.326 9.559 16.174c19.963 13.668 43.72 22.181 69.362 23.628l7.823-8.78 7.823 8.78c25.642-1.447 49.399-9.96 69.362-23.628l10.526-16.975 6.583 3.127c26.286-25.005 42.676-60.351 42.676-99.533 0-3.156-.116-6.285-.325-9.387-4.817 71.411-64.149 127.842-136.645 127.842z" fill="#ff8709"/><path d="m55.383 412.196 54.721 7.204-8.494 16.031 14.833 3.514 7.799 24.046c.846 2.608-.477 5.429-3.022 6.447-37.989 15.181-64.167 32.452-76.567 41.544-3.428 2.514-8.255.089-8.293-4.162l-.306-33.753c-.017-1.913-1.08-3.662-2.77-4.559l-28.928-15.357c-3.364-1.786-3.748-6.455-.714-8.757 8.71-6.606 26.267-18.939 51.741-32.198z" fill="#ff9838"/><g><g><path d="m73.56 453.766-5.803-13.299c.403-.268 16.665-18.426 16.665-18.426l25.683-2.641 6.339 19.545c-17.118 7.009-29.192 13.559-35.478 17.24-2.695 1.579-6.157.443-7.406-2.419z" fill="#ff8709"/></g></g><path d="m429.237 422.895s-57.636-40.105-173.237-40.105-171.578 39.25-171.578 39.25l-26.055-3.007-20.542-47.076c-1.046-2.396-.159-5.2 2.081-6.548 18.035-10.857 97.84-54.47 216.095-54.47s198.06 43.612 216.095 54.47c2.24 1.348 3.126 4.152 2.08 6.548l-20.542 47.076z" fill="#ffcb5b"/><path d="m256 369.478c-107.013 0-179.719 38.897-197.633 49.556l9.361 21.452s72.671-48.695 188.272-48.695 188.272 48.695 188.272 48.695l9.361-21.452c-17.914-10.658-90.62-49.556-197.633-49.556z" fill="#f7b737"/><path d="m330.446 61.14c5.122-11.644 13.436-19.984 18.742-24.472-3.88-3.611-7.969-7-12.248-10.145-6.51 5.814-15.134 15.217-20.791 27.994-16.411-6.647-34.056-10.631-52.326-11.52v-42.769c-2.59-.146-5.197-.228-7.823-.228s-5.233.082-7.823.228v42.77c-18.27.889-35.915 4.873-52.326 11.52-5.657-12.778-14.281-22.18-20.791-27.994-4.279 3.145-8.368 6.534-12.248 10.145 5.306 4.487 13.62 12.828 18.742 24.472-24.718 12.961-45.882 32.265-61.084 56.177-.943 6.502-1.44 13.148-1.44 19.912 0 5.465.329 10.852.949 16.15 12.283-33.343 36.01-60.204 65.78-76.732.282 2.543.397 5.176.278 7.913-.577 13.291-4.688 26.806-9.449 42.455-8.343 27.425-18.478 60.792-14.88 109.745 5.316 5.057 11.039 9.688 17.11 13.845-6.89-54.467 3.966-90.198 12.739-119.036 5.069-16.666 9.448-31.059 10.111-46.33.243-5.586-.205-10.823-1.138-15.728 14.917-6.197 30.991-9.929 47.647-10.828v215.548c2.59.146 5.197.228 7.823.228s5.233-.082 7.823-.228v-215.549c16.656.899 32.73 4.631 47.647 10.828-.933 4.905-1.381 10.142-1.138 15.728.664 15.271 5.042 29.664 10.111 46.33 8.773 28.838 19.629 64.569 12.739 119.036 6.072-4.157 11.794-8.788 17.111-13.845 3.598-48.953-6.538-82.32-14.88-109.745-4.76-15.649-8.871-29.164-9.449-42.455-.119-2.737-.004-5.37.278-7.913 29.769 16.528 53.496 43.389 65.78 76.732.62-5.298.949-10.686.949-16.15 0-6.764-.497-13.411-1.44-19.912-15.203-23.911-36.367-43.215-61.085-56.177z" fill="#ce7430"/></g></g></svg>