<?xml version="1.0" encoding="iso-8859-1"?>
<!-- Uploaded to: SVG Repo, www.svgrepo.com, Generator: SVG Repo Mixer Tools -->
<svg fill="#000000" height="800px" width="800px" version="1.1" id="Capa_1" xmlns="http://www.w3.org/2000/svg" xmlns:xlink="http://www.w3.org/1999/xlink" 
	 viewBox="0 0 462.259 462.259" xml:space="preserve">
<g>
	<path d="M438.629,347.613c0-25.09-16.929-47.138-41.168-53.618l-75.611-20.212c-0.718-6.747-4.318-13.103-10.31-17.098
		l-12.251-8.167c-1.416-0.945-3.057-1.334-4.66-1.227v-6.859c24.325-18.955,40-48.517,40-81.674v-25.316
		c1.977,0.367,3.034,0.599,3.141,0.624c0.561,0.129,1.127,0.192,1.688,0.192c2.096,0,4.128-0.88,5.567-2.474
		c3.718-4.119,5.604-8.501,5.604-13.026c0-6.239-3.183-11.856-9.499-16.82l-4.99-54.883c-1.211-13.327-10.747-24.462-23.729-27.708
		L238.77,0.938c-4.998-1.25-10.283-1.25-15.281,0l-73.642,18.411c-12.982,3.246-22.519,14.381-23.729,27.708l-4.99,54.884
		c-6.316,4.964-9.499,10.581-9.499,16.82c0,4.522,1.885,8.905,5.603,13.024c1.822,2.019,4.6,2.894,7.25,2.285
		c0.058-0.013,1.118-0.249,3.147-0.625v25.315c0,33.157,15.675,62.719,40,81.674v6.859c-1.603-0.107-3.243,0.282-4.66,1.227
		l-12.251,8.167c-5.992,3.994-9.591,10.351-10.31,17.098l-75.611,20.212c-24.239,6.479-41.168,28.528-41.168,53.618v33.848
		c0,7.936,2.972,15.321,8,20.958v28.34c0,17.369,14.131,31.5,31.5,31.5h40h256h40c17.369,0,31.5-14.131,31.5-31.5v-28.34
		c5.028-5.637,8-13.022,8-20.958V347.613z M423.629,347.613v33.848c0,7.113-4.534,13.404-11.282,15.653l-45.718,15.24v-21.026
		c0-8.681,3.381-16.843,9.52-22.981l41.644-41.644C421.516,332.865,423.629,340.048,423.629,347.613z M296.085,264.409l7.135,4.757
		c3.559,2.373,4.802,7.043,2.893,10.865c-14.229,28.477-23.991,48.006-29.199,58.414c-12.863-11.311-24.587-18.251-32.629-22.236
		L296.085,264.409z M134.816,117.044l0.593-6.526c4.155-2.272,10.121-4.757,18.584-7.175c20.503-5.858,47.896-9.084,77.136-9.084
		s56.633,3.226,77.136,9.084c8.463,2.418,14.429,4.903,18.584,7.175l0.593,6.526c-16.481-2.42-48.065-5.785-96.313-5.785
		S151.297,114.624,134.816,117.044z M141.056,48.414c0.634-6.98,5.629-12.813,12.43-14.514l73.642-18.411
		c2.617-0.654,5.387-0.654,8.004,0L308.773,33.9c6.801,1.7,11.796,7.533,12.431,14.514l4.078,44.854
		c-3.862-1.545-8.16-2.995-12.895-4.348c-20.013-5.718-45.973-9.07-73.757-9.583V38.759c0-4.142-3.357-7.5-7.5-7.5
		s-7.5,3.358-7.5,7.5v40.578c-27.784,0.514-53.743,3.866-73.756,9.583c-4.735,1.353-9.034,2.803-12.896,4.349L141.056,48.414z
		 M142.629,158.758V131.14c17.09-2.217,46.382-4.882,88.5-4.882c42.113,0,71.409,2.665,88.5,4.881v27.618
		c0,48.799-39.701,88.5-88.5,88.5S142.629,207.558,142.629,158.758z M231.129,262.258c17.515,0,34.024-4.379,48.5-12.091v9.484
		l-48.5,48.5l-48.5-48.5v-9.484C197.105,257.879,213.615,262.258,231.129,262.258z M159.039,269.166l7.135-4.757l51.801,51.8
		c-8.042,3.985-19.766,10.925-32.629,22.236c-5.208-10.408-14.97-29.937-29.199-58.414
		C154.237,276.209,155.48,271.539,159.039,269.166z M68.67,308.486l74.919-20.027l31.843,63.689
		c1.452,2.896,2.707,5.397,6.495,6.012c0.4,0.065,0.803,0.097,1.202,0.097c1.956,0,3.854-0.766,5.269-2.162
		c13.8-13.618,26.796-21.614,35.231-25.915v76.577c0,4.142,3.357,7.5,7.5,7.5s7.5-3.358,7.5-7.5v-76.576
		c8.44,4.303,21.434,12.298,35.231,25.914c1.415,1.396,3.313,2.162,5.269,2.162c0.399,0,0.802-0.032,1.202-0.097
		c3.788-0.615,5.043-3.116,6.495-6.012l31.842-63.69l74.919,20.027c5.268,1.408,10.057,3.831,14.194,7.013l-42.24,42.24
		c-8.972,8.971-13.913,20.899-13.913,33.587v31.562c0,0.009,0,0.018,0,0.027v24.343h-241v-24.343c0-0.009,0-0.018,0-0.027v-31.562
		c0-12.688-4.941-24.617-13.912-33.587l-42.24-42.24C58.613,312.317,63.402,309.895,68.67,308.486z M38.629,347.613
		c0-7.565,2.114-14.748,5.837-20.91l41.645,41.644c6.138,6.138,9.519,14.3,9.519,22.981v21.026l-45.718-15.24
		c-6.748-2.249-11.282-8.54-11.282-15.653V347.613z M46.629,430.759v-18.928l49,16.334v19.094h-32.5
		C54.032,447.259,46.629,439.857,46.629,430.759z M399.129,447.259h-32.5v-19.094l49-16.334v18.928
		C415.629,439.857,408.227,447.259,399.129,447.259z"/>
	<path d="M179.488,215.343c7.236,4.589,16.537,6.916,27.642,6.916c9.932,0,17.816-3.032,23.434-9.012
		c0.201-0.214,0.375-0.438,0.566-0.655c0.192,0.218,0.365,0.441,0.566,0.655c5.617,5.98,13.502,9.012,23.434,9.012
		c11.104,0,20.405-2.327,27.642-6.916c6.182-3.92,10.439-9.372,11.68-14.958c0.898-4.043-1.651-8.05-5.694-8.948
		c-4.045-0.901-8.051,1.651-8.948,5.695c-0.178,0.798-1.199,2.562-3.524,4.397c-2.762,0.493-3.87-0.337-7.905-7.134
		c-2.313-3.895-4.935-8.31-9.168-11.575c-9.829-7.584-20.896-6.549-27.384-3.358c-0.238,0.117-0.468,0.241-0.697,0.366
		c-0.229-0.124-0.459-0.249-0.697-0.366c-6.489-3.189-17.554-4.226-27.384,3.358c-4.233,3.266-6.854,7.68-9.168,11.575
		c-4.036,6.797-5.143,7.627-7.905,7.134c-2.325-1.835-3.347-3.599-3.524-4.397c-0.898-4.043-4.899-6.595-8.948-5.695
		c-4.043,0.898-6.593,4.904-5.694,8.948C169.048,205.971,173.306,211.422,179.488,215.343z M250.048,194.697
		c1.963,1.514,3.648,4.353,5.433,7.357c0.911,1.534,1.969,3.315,3.248,5.095c-1.143,0.071-2.342,0.109-3.6,0.109
		c-5.581,0-9.766-1.417-12.437-4.214c-3.098-3.244-3.853-7.842-4.029-10.234C240.694,191.926,245.44,191.142,250.048,194.697z
		 M206.778,202.055c1.784-3.005,3.47-5.843,5.433-7.358c4.609-3.555,9.353-2.771,11.384-1.886
		c-0.179,2.378-0.928,6.934-3.963,10.166c-2.67,2.842-6.876,4.283-12.502,4.283c-1.258,0-2.457-0.038-3.601-0.109
		C204.808,205.37,205.867,203.588,206.778,202.055z"/>
</g>
</svg>