<svg xmlns="http://www.w3.org/2000/svg" id="Capa_1" enable-background="new 0 0 512 512" height="512" viewBox="0 0 512 512" width="512"><g><g><path d="m256 356.105c-185.62 0-185.774-176.517-185.62-179.62 4.879-98.291 86.118-176.485 185.62-176.485s180.741 78.194 185.62 176.485c.154 3.103 0 179.62-185.62 179.62z" fill="#ff9838"/><path d="m256 352.969c-99.502 0-180.738-78.194-185.618-176.484-.154 3.103-.234 6.226-.234 9.367 0 102.643 83.209 185.852 185.852 185.852s185.852-83.209 185.852-185.852c0-3.141-.08-6.264-.234-9.367-4.88 98.29-86.116 176.484-185.618 176.484z" fill="#ff8709"/><path d="m402.412 185.852c0 62.694-65.551 137.412-146.412 137.412s-146.412-78.829-146.412-137.412c0-3.147.099-6.27.295-9.368 4.83-76.496 68.403-137.044 146.117-137.044s141.287 60.548 146.117 137.044c.196 3.098.295 6.221.295 9.368z" fill="#ce7430"/><path d="m256 313.529c-77.713 0-141.274-60.55-146.105-137.044-.196 3.098-.307 6.219-.307 9.367 0 80.861 65.551 146.412 146.412 146.412s146.412-65.551 146.412-146.412c0-3.148-.111-6.269-.307-9.367-4.831 76.494-68.392 137.044-146.105 137.044z" fill="#bc672e"/><g fill="#ea9957"/></g></g></svg>