<svg xmlns="http://www.w3.org/2000/svg" id="Capa_1" enable-background="new 0 0 512 512" height="512" viewBox="0 0 512 512" width="512"><g><g><path d="m256 359.438c-185.62 0-185.774-179.85-185.62-182.953 4.879-98.291 86.118-176.485 185.62-176.485 99.436 0 180.633 78.09 185.61 176.288.161 3.168 0 183.15-185.61 183.15z" fill="#e0e0e0"/><path d="m256 352.969c-99.502 0-180.738-78.194-185.618-176.485-.154 3.103-.234 6.226-.234 9.367 0 102.643 83.209 185.852 185.852 185.852s185.852-83.209 185.852-185.852c0-3.142-.08-6.264-.234-9.367-4.88 98.291-86.116 176.485-185.618 176.485z" fill="#cecece"/><path d="m256 320.63c-146.412 0-146.313-141.048-146.117-144.146 4.831-76.496 68.403-137.044 146.117-137.044s141.286 60.548 146.117 137.044c.196 3.098 0 144.146-146.117 144.146z" fill="#9e9e9e"/><path d="m256 313.529c-77.713 0-141.274-60.55-146.105-137.044-.196 3.098-.307 6.22-.307 9.367 0 80.861 65.551 146.412 146.412 146.412s146.412-65.551 146.412-146.412c0-3.148-.111-6.269-.307-9.367-4.831 76.494-68.392 137.044-146.105 137.044z" fill="#898989"/></g></g></svg>